<svg xmlns="http://www.w3.org/2000/svg" width="512" height="512" viewBox="0 0 512 512">
  <rect width="512" height="512" fill="#ffffff"/>
  <g fill="#222222">
    <path d="M130 330 C160 265, 225 235, 300 250 C340 258, 360 285, 360 315 C360 365, 320 410, 265 425 C210 440, 150 425, 120 390 C110 375, 112 350, 130 330 Z"/>
    <path d="M300 250 L430 120 C442 108, 460 108, 472 120 C484 132, 484 150, 472 162 L342 292 Z"/>
    <rect x="320" y="230" width="70" height="40" transform="rotate(-45 355 250)"/>
  </g>
</svg>
